<?xml version="1.0" standalone="no"?>
<!DOCTYPE svg PUBLIC "-//W3C//DTD SVG 20010904//EN"
 "http://www.w3.org/TR/2001/REC-SVG-20010904/DTD/svg10.dtd">
<svg version="1.0" xmlns="http://www.w3.org/2000/svg"
 width="700.000000pt" height="700.000000pt" viewBox="0 0 700.000000 700.000000"
 preserveAspectRatio="xMidYMid meet">
<metadata>
Created by potrace 1.14, written by Peter Selinger 2001-2017
</metadata>
<g transform="translate(0.000000,700.000000) scale(0.100000,-0.100000)"
fill="#000000" stroke="none">
<path d="M3110 6607 c-3 -3 -23 -7 -45 -10 -254 -35 -515 -265 -595 -523 -30
-100 -32 -111 -35 -222 -6 -221 71 -411 232 -574 31 -32 59 -58 63 -58 4 0 18
-9 31 -21 46 -40 197 -108 276 -124 265 -53 509 14 706 195 244 225 313 630
156 919 -107 195 -257 321 -462 387 -62 20 -111 27 -202 31 -66 3 -122 3 -125
0z m230 -410 c222 -83 319 -335 210 -547 -31 -61 -111 -137 -175 -166 -113
-52 -218 -52 -328 0 -273 126 -305 498 -59 668 98 68 242 87 352 45z"/>
<path d="M5197 5444 c-1 -2 -26 -6 -55 -9 -208 -24 -422 -159 -539 -342 -44
-67 -95 -174 -98 -203 -1 -3 -7 -30 -15 -60 -15 -60 -19 -230 -7 -297 43 -241
218 -469 437 -570 102 -47 182 -65 300 -69 63 -2 135 1 160 6 25 5 56 12 70
14 79 17 239 104 322 176 93 81 201 259 229 376 36 157 32 303 -11 437 -85
258 -291 451 -555 517 -65 17 -229 33 -238 24z m191 -416 c261 -97 333 -436
134 -635 -43 -43 -88 -71 -163 -101 -14 -6 -68 -9 -120 -8 -80 2 -103 7 -153
31 -81 39 -150 110 -189 192 -27 59 -31 79 -32 153 0 68 5 98 25 148 78 197
298 294 498 220z"/>
<path d="M1485 4273 c-283 -32 -536 -153 -735 -353 -186 -186 -299 -404 -344
-665 -13 -78 -15 -322 -2 -375 3 -13 8 -42 12 -64 3 -22 10 -48 15 -58 5 -10
7 -18 5 -18 -3 0 8 -36 24 -79 137 -373 404 -630 790 -761 177 -60 297 -130
404 -236 112 -111 176 -219 245 -412 69 -192 129 -305 224 -417 251 -298 603
-457 977 -442 132 6 159 9 255 33 477 119 835 514 909 1004 10 63 12 249 11
730 -1 355 -5 654 -7 665 -3 11 -9 43 -13 70 -21 149 -93 358 -172 505 -42 78
-110 188 -123 200 -3 3 -21 25 -40 50 -19 25 -41 52 -49 61 -9 9 -34 36 -57
60 -39 42 -128 123 -189 171 -110 87 -342 208 -484 252 -79 25 -207 56 -296
71 -40 7 -1303 14 -1360 8z m1330 -396 c17 -4 60 -14 98 -22 97 -22 216 -67
314 -120 47 -26 90 -51 97 -56 6 -5 40 -31 76 -58 130 -96 279 -278 358 -436
36 -73 88 -218 96 -269 4 -21 8 -41 10 -45 16 -26 21 -204 21 -761 0 -633 0
-635 -23 -715 -108 -374 -421 -613 -801 -613 -284 1 -529 132 -688 370 -48 72
-64 109 -129 288 -144 401 -441 685 -862 826 -297 100 -493 297 -572 579 -26
91 -35 265 -19 355 61 339 305 593 644 670 73 17 132 18 715 16 349 -1 649 -5
665 -9z"/>
<path d="M5705 3100 c-71 -11 -169 -46 -245 -87 -245 -134 -399 -389 -402
-668 -1 -104 8 -163 39 -255 31 -91 44 -118 95 -194 237 -350 716 -444 1068
-211 176 117 302 307 338 510 9 52 9 228 0 281 -42 249 -250 497 -489 585
-123 44 -272 59 -404 39z m299 -420 c85 -42 154 -116 189 -202 22 -53 25 -77
24 -153 -2 -79 -6 -98 -34 -155 -70 -142 -212 -231 -356 -224 -209 10 -369
164 -381 365 -10 176 104 338 277 395 27 9 72 13 128 10 73 -3 96 -8 153 -36z"/>
</g>
</svg>
